
<svg height="100%" stroke-miterlimit="10" style="fill-rule:nonzero;clip-rule:evenodd;stroke-linecap:round;stroke-linejoin:round;" version="1.1" viewBox="0 0 26 15" width="100%" xml:space="preserve" xmlns="http://www.w3.org/2000/svg" xmlns:xlink="http://www.w3.org/1999/xlink">
<defs/>
<g id="Untitled">
<path d="M5.24 0.719999C6.50667 0.719999 7.56667 0.839999 8.42 1.08C9.28667 1.30667 9.93333 1.68667 10.36 2.22C10.8 2.74 11.02 3.44667 11.02 4.34C11.02 4.87333 10.9333 5.36 10.76 5.8C10.5867 6.24 10.3333 6.6 10 6.88C9.68 7.16 9.28667 7.34 8.82 7.42L8.82 7.52C9.3 7.61333 9.73333 7.78 10.12 8.02C10.5067 8.26 10.8133 8.60667 11.04 9.06C11.2667 9.51333 11.38 10.1133 11.38 10.86C11.38 11.7267 11.1667 12.4733 10.74 13.1C10.3267 13.7133 9.72667 14.1867 8.94 14.52C8.15333 14.84 7.22 15 6.14 15L0.8 15L0.8 0.719999L5.24 0.719999ZM5.58 6.38C6.46 6.38 7.06667 6.24 7.4 5.96C7.74667 5.68 7.92 5.27333 7.92 4.74C7.92 4.19333 7.72 3.8 7.32 3.56C6.92 3.32 6.28667 3.2 5.42 3.2L3.82 3.2L3.82 6.38L5.58 6.38ZM3.82 8.78L3.82 12.5L5.8 12.5C6.70667 12.5 7.34 12.3267 7.7 11.98C8.06 11.62 8.24 11.1467 8.24 10.56C8.24 10.2 8.16 9.88667 8 9.62C7.85333 9.35333 7.59333 9.14667 7.22 9C6.84667 8.85333 6.34 8.78 5.7 8.78L3.82 8.78Z" fill="#ff9803" fill-rule="nonzero" opacity="1" stroke="none"/>
<path d="M18.3975 0.719999C19.6908 0.719999 20.7575 0.879999 21.5975 1.2C22.4375 1.50667 23.0642 1.98 23.4775 2.62C23.8908 3.24667 24.0975 4.04 24.0975 5C24.0975 5.65333 23.9708 6.22667 23.7175 6.72C23.4775 7.2 23.1508 7.61333 22.7375 7.96C22.3375 8.29333 21.9042 8.56667 21.4375 8.78L25.6375 15L22.2775 15L18.8775 9.52L17.2575 9.52L17.2575 15L14.2375 15L14.2375 0.719999L18.3975 0.719999ZM18.1775 3.2L17.2575 3.2L17.2575 7.06L18.2375 7.06C18.9042 7.06 19.4442 6.98667 19.8575 6.84C20.2708 6.69333 20.5708 6.47333 20.7575 6.18C20.9442 5.87333 21.0375 5.50667 21.0375 5.08C21.0375 4.62667 20.9308 4.26667 20.7175 4C20.5175 3.72 20.2042 3.52 19.7775 3.4C19.3642 3.26667 18.8308 3.2 18.1775 3.2Z" fill="#f44236" fill-rule="nonzero" opacity="1" stroke="none"/>
</g>
</svg>
